<?xml version="1.0" standalone="no"?>
<!DOCTYPE svg PUBLIC "-//W3C//DTD SVG 20010904//EN"
 "http://www.w3.org/TR/2001/REC-SVG-20010904/DTD/svg10.dtd">
<svg version="1.0" xmlns="http://www.w3.org/2000/svg"
 width="894.000000pt" height="894.000000pt" viewBox="0 0 894.000000 894.000000"
 preserveAspectRatio="xMidYMid meet">
<metadata>
Created by potrace 1.16, written by Peter Selinger 2001-2019
</metadata>
<g transform="translate(0.000000,894.000000) scale(0.100000,-0.100000)"
fill="#3daab9" stroke="none">
<path d="M4801 8538 c-7 -51 -16 -97 -21 -103 -4 -5 -13 -37 -19 -70 -6 -33
-18 -97 -26 -142 -9 -45 -22 -133 -30 -195 -8 -62 -21 -160 -29 -218 -29 -205
-86 -721 -130 -1175 -84 -854 -136 -1400 -141 -1490 -9 -163 -3 -124 76 460
11 83 25 160 31 172 6 12 8 30 4 40 -4 9 -4 14 1 10 9 -10 18 36 93 496 81
494 147 973 165 1194 8 99 19 202 24 227 5 25 5 46 2 46 -4 0 -13 -39 -20 -87
-7 -49 -19 -106 -27 -128 l-13 -40 3 50 c2 28 9 95 15 150 26 237 41 409 46
530 8 165 14 252 24 315 6 37 5 50 -4 50 -8 0 -17 -33 -24 -92z"/>
<path d="M3458 8563 c-20 -5 -22 -17 -9 -76 12 -50 65 -334 81 -427 6 -36 20
-105 30 -155 11 -49 29 -135 40 -190 46 -219 175 -762 399 -1680 109 -445 220
-901 246 -1012 27 -111 52 -200 55 -198 4 3 -1 39 -10 82 -48 213 -80 386 -75
403 3 11 -3 77 -15 147 -11 71 -54 335 -95 588 -42 252 -74 466 -73 474 2 8
27 -132 56 -310 81 -489 131 -771 138 -778 10 -9 -3 124 -57 554 -108 865
-143 1131 -205 1540 -39 259 -39 257 -54 305 -10 31 -37 163 -54 263 -7 36
-19 47 -30 28 -3 -5 -1 -33 5 -62 6 -30 13 -108 15 -174 6 -152 59 -548 144
-1078 23 -142 40 -261 37 -263 -2 -2 -23 112 -46 253 -64 388 -178 976 -200
1031 -5 15 -22 81 -36 147 -28 126 -37 147 -57 127 -9 -9 -8 -28 5 -84 9 -40
19 -111 23 -158 3 -47 19 -157 35 -245 37 -201 36 -226 -1 -65 -16 69 -43 186
-60 260 -45 194 -139 555 -153 590 -6 13 -37 154 -37 166 0 5 -17 4 -42 -3z"/>
<path d="M5484 8463 c-14 -62 -98 -314 -134 -398 -35 -84 -108 -304 -181 -545
-17 -58 -46 -150 -64 -205 -18 -55 -45 -145 -60 -200 -15 -55 -33 -120 -41
-145 -8 -25 -27 -94 -43 -155 -39 -153 -445 -1618 -482 -1739 -16 -55 -27
-101 -25 -104 3 -2 47 124 98 281 50 157 96 283 100 281 4 -3 13 7 19 23 9 24
304 845 352 983 9 25 37 104 62 175 25 72 71 207 101 300 30 94 63 195 73 225
11 30 29 89 41 130 12 41 26 89 31 105 5 17 23 74 40 127 17 54 29 110 27 125
l-3 27 -16 -35 c-9 -18 -26 -56 -38 -84 -13 -27 -29 -63 -37 -80 -8 -16 -28
-68 -44 -115 -47 -131 -33 -81 114 430 14 47 30 117 36 155 10 64 40 183 90
355 27 91 28 104 8 108 -12 2 -19 -5 -24 -25z"/>
<path d="M3160 8290 c0 -8 18 -67 39 -130 40 -116 45 -145 17 -93 -23 42 -19
16 9 -57 14 -36 38 -114 54 -175 16 -60 47 -168 70 -240 23 -71 56 -175 73
-230 39 -130 291 -887 423 -1270 57 -165 149 -435 206 -600 56 -165 106 -304
111 -310 6 -6 7 -5 4 5 -2 8 -17 58 -31 110 -15 52 -42 146 -61 209 -19 63
-32 122 -29 132 3 9 -8 67 -25 128 -17 62 -29 120 -25 130 5 16 -28 153 -130
546 -19 72 -53 202 -75 290 -68 258 -193 672 -210 689 -7 7 -10 6 -10 -3 0
-26 -18 0 -25 36 -4 21 -10 43 -14 48 -5 6 -21 51 -36 100 -31 101 -33 105
-44 86 -8 -12 1 -63 35 -192 42 -164 -11 -23 -111 296 -26 83 -53 168 -60 190
-7 22 -21 66 -29 98 -17 59 -33 80 -21 27 11 -50 -3 -33 -19 24 -9 30 -19 56
-24 58 -4 2 -19 28 -34 58 -16 30 -28 48 -28 40z"/>
<path d="M4111 8282 c-1 -13 -5 -20 -11 -17 -22 14 -17 -280 14 -750 9 -132
18 -280 21 -330 5 -102 0 -67 -49 410 -15 138 -29 268 -32 290 -29 216 -58
351 -80 373 -31 30 -30 -191 2 -486 21 -201 32 -317 39 -407 7 -107 32 -316
150 -1250 19 -148 50 -405 70 -570 36 -301 52 -385 56 -295 l2 45 7 -35 c10
-46 10 88 2 261 -6 99 -4 129 6 139 11 10 12 43 7 159 -4 96 -3 141 3 132 8
-11 11 -9 15 10 2 13 6 -113 7 -281 2 -172 6 -279 10 -245 6 57 7 55 9 -35 3
-133 17 -86 24 85 4 77 20 421 37 765 41 868 50 1108 50 1390 -1 135 0 309 1
388 1 137 0 142 -20 142 -12 0 -22 -1 -22 -2 -1 -2 -5 -57 -9 -123 -4 -66 -13
-176 -19 -245 -6 -69 -15 -267 -20 -440 l-8 -315 -1 511 c-1 281 -5 532 -8
558 -17 119 -24 14 -25 -351 0 -232 -4 -390 -9 -378 -5 11 -9 46 -9 77 -1 57
-15 83 -32 57 -5 -8 -10 -63 -11 -124 -1 -81 -3 -90 -5 -35 -3 90 -22 378 -29
438 -3 27 -10 42 -19 42 -12 0 -15 -39 -17 -227 l-3 -228 -13 210 c-7 116 -19
262 -27 325 -8 63 -19 164 -25 223 -13 113 -27 185 -29 139z"/>
<path d="M4597 8262 c-39 -43 -49 -126 -102 -844 -1 -26 -6 -68 -9 -95 -3 -26
-17 -289 -31 -583 -34 -717 -64 -1324 -71 -1440 -5 -67 -3 -92 4 -85 13 13
184 1874 207 2255 3 52 10 154 16 225 24 315 26 375 18 474 -5 58 -11 106 -12
108 -2 2 -11 -5 -20 -15z"/>
<path d="M4990 8204 c0 -8 -4 -13 -10 -9 -5 3 -14 -11 -19 -32 -22 -81 -82
-378 -121 -603 -23 -129 -44 -242 -47 -250 -8 -19 -11 -34 -18 -90 -3 -25 -12
-76 -20 -115 -13 -62 -91 -540 -130 -795 -8 -52 -48 -302 -89 -555 -90 -560
-89 -551 -80 -542 4 4 16 42 26 85 11 49 16 61 13 32 -8 -75 12 -24 46 117 17
70 33 130 36 133 3 3 2 -11 -2 -30 -5 -24 -4 -32 3 -25 12 11 21 43 171 595
239 879 387 1468 406 1610 4 25 15 87 26 139 11 51 17 96 14 99 -8 8 -11 2
-38 -88 -14 -47 -41 -132 -60 -190 -19 -58 -50 -162 -68 -233 -17 -70 -34
-125 -36 -123 -3 2 10 69 27 148 32 148 44 211 81 433 28 170 28 169 2 173
-19 3 -23 -4 -33 -55 -7 -32 -28 -112 -46 -178 -18 -66 -47 -183 -64 -260 -17
-77 -37 -160 -44 -185 -8 -25 -22 -85 -32 -134 -10 -49 -20 -84 -22 -78 -2 6
6 64 18 129 91 495 95 519 111 643 6 46 13 88 15 92 3 4 7 41 9 83 4 61 2 75
-10 75 -8 0 -15 -7 -15 -16z"/>
<path d="M3072 7988 c18 -72 113 -370 147 -463 11 -27 49 -133 86 -235 73
-199 250 -660 389 -1014 375 -949 424 -1070 426 -1044 0 4 -16 54 -36 110 -19
57 -42 123 -51 148 -8 25 -46 133 -83 240 -38 107 -116 330 -173 495 -137 390
-306 866 -350 980 -19 50 -58 153 -87 230 -29 77 -58 154 -65 170 -7 17 -19
48 -26 70 -7 22 -18 47 -24 55 -7 8 -20 38 -30 65 -23 64 -58 135 -103 208
-19 31 -36 57 -37 57 -1 0 7 -32 17 -72z"/>
<path d="M5649 8003 c-19 -5 -79 -110 -109 -191 -12 -31 -28 -67 -35 -79 -8
-12 -33 -70 -56 -130 -22 -59 -73 -193 -114 -298 -132 -343 -167 -437 -313
-840 -419 -1157 -457 -1264 -442 -1249 13 13 49 99 227 539 107 267 159 386
140 325 -7 -21 -153 -395 -178 -453 -11 -27 -18 -51 -15 -54 3 -3 10 5 15 18
5 13 30 69 56 124 26 55 51 111 56 124 5 13 12 22 14 19 3 -3 -2 -21 -10 -41
-8 -20 -15 -42 -15 -49 0 -33 39 38 161 292 317 663 496 1055 575 1259 25 62
53 132 63 155 27 62 31 76 21 76 -11 0 -40 -53 -40 -72 0 -19 -39 -91 -56
-104 -8 -6 -46 -78 -84 -160 -39 -82 -70 -143 -70 -136 0 7 8 29 19 50 19 37
29 69 57 172 8 30 23 73 34 95 37 77 59 143 54 166 -4 16 -3 20 3 11 7 -9 14
-2 26 23 20 42 21 49 5 39 -8 -5 -9 -2 -5 10 4 10 7 21 7 24 0 4 4 1 9 -6 7
-11 9 -10 14 3 4 9 3 14 -2 10 -5 -3 -11 1 -14 7 -3 7 -12 -4 -21 -24 -18 -41
-21 -61 -6 -38 11 17 13 1 4 -25 -4 -10 -9 -13 -13 -6 -4 6 -29 -33 -56 -87
-27 -53 -55 -103 -62 -110 -7 -7 -13 -19 -13 -27 0 -7 -20 -57 -44 -112 -70
-156 -261 -609 -308 -731 -11 -29 -22 -51 -24 -49 -3 2 22 71 55 153 121 304
332 847 385 994 36 100 80 232 96 290 10 36 21 73 25 83 4 9 6 16 4 16 -2 -1
-11 -3 -20 -6z"/>
<path d="M2036 7935 c-11 -8 -15 -19 -10 -27 4 -7 51 -78 104 -158 53 -80 99
-153 103 -162 6 -17 275 -418 390 -583 266 -379 424 -599 773 -1080 220 -302
484 -667 587 -810 103 -143 198 -273 213 -290 l25 -30 -18 30 c-10 16 -100
153 -201 302 -100 150 -180 273 -178 273 3 0 32 -40 66 -89 58 -87 105 -139
63 -70 -12 19 -93 151 -180 294 -182 298 -227 375 -218 375 3 0 -1 14 -10 30
-31 60 -6 28 48 -62 68 -113 186 -295 187 -287 0 9 -92 184 -213 404 -132 240
-122 222 -110 210 8 -8 172 -292 323 -562 20 -34 41 -68 49 -75 18 -17 20 -22
-90 197 -102 205 -121 245 -114 245 2 0 35 -60 73 -132 121 -233 174 -329 178
-325 3 2 -20 57 -51 121 -30 64 -55 126 -55 136 0 18 -13 52 -58 150 -11 25
-38 88 -60 140 -46 108 -294 646 -352 761 -22 42 -46 84 -55 93 -9 9 -47 76
-84 149 -40 78 -73 132 -81 132 -20 0 -46 39 -111 163 -29 56 -57 102 -62 102
-12 0 -1 -31 44 -126 22 -45 39 -89 39 -99 0 -9 21 -55 46 -103 53 -101 164
-332 159 -332 -2 0 -38 66 -80 148 -45 85 -92 162 -114 183 -20 19 -62 82 -94
140 -32 57 -65 113 -73 123 -17 24 -29 15 -15 -11 6 -10 58 -115 115 -233 113
-232 176 -351 373 -712 2 -5 2 -8 -1 -8 -2 0 -23 34 -45 75 -80 144 -359 615
-372 625 -8 7 -99 140 -99 146 0 15 -59 94 -64 86 -6 -11 16 -61 33 -71 5 -4
36 -63 69 -131 32 -69 105 -206 162 -305 120 -210 116 -203 103 -190 -5 6 -49
75 -98 155 -91 148 -127 199 -151 213 -11 6 -12 3 -3 -20 15 -41 4 -26 -125
167 -195 292 -256 375 -276 378 -29 5 -25 -11 26 -96 26 -42 48 -86 48 -97 1
-11 8 -19 15 -17 7 1 10 -2 6 -8 -4 -6 20 -50 52 -98 32 -48 63 -94 68 -104 6
-9 40 -63 76 -120 103 -162 104 -164 87 -148 -8 8 -53 71 -100 140 -137 202
-368 525 -406 566 -19 20 -104 136 -187 256 -28 39 -55 73 -60 74 -6 2 -18 -3
-29 -11z"/>
<path d="M5976 7853 c-20 -21 -36 -41 -36 -45 0 -4 -6 -13 -13 -20 -6 -7 -23
-37 -36 -66 -14 -29 -31 -58 -38 -64 -8 -6 -24 -32 -36 -57 -13 -25 -133 -264
-268 -531 -135 -267 -318 -636 -407 -820 -88 -184 -234 -486 -323 -670 -195
-405 -215 -450 -195 -430 8 8 94 162 190 342 179 336 225 418 232 418 2 0 -16
-37 -40 -82 -122 -232 -167 -321 -162 -325 2 -3 30 40 62 94 31 54 69 118 84
143 204 335 700 1219 835 1490 37 74 71 140 76 145 16 20 28 64 19 70 -4 3
-27 -27 -50 -67 -67 -118 -87 -150 -97 -157 -6 -3 -22 -28 -37 -56 -89 -162
-188 -335 -192 -335 -2 0 19 46 47 103 47 94 82 167 146 307 13 30 55 111 91
180 79 149 126 252 157 340 23 68 37 130 30 130 -2 0 -20 -17 -39 -37z"/>
<path d="M6214 7694 c-21 -26 -47 -60 -57 -75 -11 -16 -22 -29 -27 -29 -4 0
-10 -8 -14 -17 -3 -10 -18 -37 -33 -60 -188 -289 -536 -864 -883 -1458 -103
-176 -261 -446 -352 -600 -91 -154 -173 -296 -183 -315 -17 -34 -17 -35 1 -18
11 9 102 147 204 306 102 159 195 297 208 307 27 20 27 20 -95 -169 -102 -157
-67 -134 53 35 145 203 443 624 579 819 170 242 565 842 565 857 0 25 -35 12
-60 -23 -14 -19 -54 -74 -90 -122 -36 -48 -110 -152 -164 -232 -172 -254 -140
-186 50 107 41 63 74 118 74 123 0 5 9 25 20 45 24 43 25 52 3 34 -15 -13 -15
-12 -4 9 7 12 16 20 21 17 8 -5 25 18 65 84 5 10 4 12 -3 7 -7 -4 -12 -5 -12
-2 0 7 44 86 107 190 29 49 53 94 53 100 0 6 9 28 20 49 23 43 26 77 7 77 -8
0 -31 -21 -53 -46z"/>
<path d="M2997 7684 c-6 -6 53 -174 98 -284 15 -36 65 -154 111 -262 46 -109
84 -200 84 -202 0 -3 74 -166 164 -363 461 -1009 534 -1164 536 -1135 0 12
-175 448 -225 560 -8 18 -15 38 -15 45 0 7 -27 80 -61 162 -33 83 -99 245
-145 360 -47 116 -91 224 -99 240 -54 112 -135 295 -135 304 0 5 -8 14 -17 20
-10 5 -17 12 -15 15 5 13 1 25 -11 38 -7 7 -44 83 -81 168 -102 230 -171 352
-189 334z"/>
<path d="M6840 7350 c-378 -383 -600 -620 -1070 -1145 -305 -341 -1154 -1297
-1199 -1350 -13 -16 85 83 219 220 134 138 306 311 383 385 344 335 943 938
1062 1070 22 25 63 69 89 98 27 29 50 61 51 72 1 21 50 78 191 222 52 53 94
100 94 105 0 5 14 22 31 39 17 16 56 61 87 99 73 90 69 86 215 250 115 129
124 141 109 158 -8 9 -18 16 -21 16 -3 -1 -112 -109 -241 -239z"/>
<path d="M2121 7458 c18 -35 47 -81 64 -103 18 -22 60 -80 93 -130 34 -49 87
-124 119 -165 32 -41 94 -122 138 -180 229 -301 1436 -1802 1444 -1795 6 6
-19 42 -177 255 -80 107 -240 323 -356 480 -231 313 -744 999 -760 1016 -6 6
-51 64 -101 128 -279 364 -405 513 -457 541 -15 8 -30 15 -33 15 -3 0 8 -28
26 -62z"/>
<path d="M6564 7451 c-27 -25 -68 -68 -89 -96 -22 -27 -54 -66 -73 -85 -18
-19 -79 -93 -135 -164 -56 -71 -140 -175 -187 -230 -106 -124 -324 -408 -717
-931 -165 -220 -372 -493 -460 -608 -167 -218 -230 -311 -153 -227 22 25 45
44 51 42 6 -1 8 2 5 7 -4 5 2 14 11 20 10 6 14 11 9 11 -5 0 -3 7 4 15 7 8 17
12 23 8 5 -3 7 -2 4 4 -8 12 21 55 32 48 13 -7 95 83 507 555 634 726 999
1161 1079 1285 29 44 77 111 108 149 31 37 54 73 51 78 -4 6 -18 -5 -32 -23
-15 -19 -81 -90 -148 -159 -67 -69 -157 -165 -199 -215 -147 -172 -127 -139
58 94 54 68 111 142 125 165 15 23 47 68 73 101 75 99 142 204 121 191 -6 -3
-12 -2 -14 3 -1 5 -26 -12 -54 -38z"/>
<path d="M2068 7324 c-4 -4 7 -25 25 -47 54 -67 141 -184 169 -229 23 -36 230
-289 465 -568 54 -63 54 -64 7 -15 -27 28 -91 98 -143 155 -88 98 -168 183
-329 353 -51 53 -67 65 -78 56 -8 -6 -14 -15 -14 -20 0 -5 41 -57 91 -116 73
-86 78 -95 28 -43 -35 36 -119 122 -187 193 -68 70 -127 127 -130 127 -4 0
-20 14 -36 31 -37 39 -104 82 -116 74 -12 -7 9 -43 68 -112 24 -29 40 -53 36
-53 -4 0 19 -28 52 -62 273 -289 354 -376 389 -416 55 -65 325 -341 907 -927
273 -275 513 -519 533 -542 45 -52 132 -124 117 -97 -6 10 -67 80 -135 154
-69 74 -120 138 -115 141 8 5 -108 150 -211 262 -13 15 -22 27 -19 27 4 0 53
-53 109 -117 156 -179 242 -273 246 -269 7 6 -69 102 -473 601 -623 771 -913
1115 -1064 1265 -63 63 -131 135 -150 158 -19 24 -38 40 -42 36z"/>
<path d="M6291 7261 c-27 -38 -59 -72 -69 -75 -10 -4 -25 -18 -32 -31 -7 -14
-17 -25 -22 -25 -4 0 -8 -4 -8 -10 0 -9 -27 -44 -61 -79 -50 -51 -518 -690
-704 -961 -13 -19 -47 -66 -74 -105 -28 -38 -71 -99 -96 -135 -25 -36 -70 -99
-100 -140 -30 -41 -68 -97 -85 -125 -17 -27 -38 -61 -47 -75 -17 -25 -17 -25
3 -5 10 11 31 36 46 56 14 19 35 46 47 60 28 33 128 162 268 349 344 457 418
556 451 605 21 30 78 108 127 175 50 67 95 129 100 138 6 9 32 45 59 81 26 36
53 77 60 91 6 14 16 32 23 40 26 31 173 233 173 236 0 12 -14 -3 -59 -65z"/>
<path d="M1269 7244 c-11 -14 -8 -21 26 -51 49 -42 249 -229 319 -298 86 -84
459 -407 736 -638 113 -94 243 -203 290 -242 47 -39 299 -247 560 -460 261
-214 538 -441 615 -505 235 -195 304 -250 310 -250 8 0 -66 68 -300 276 -391
347 -635 567 -635 572 0 3 10 -3 22 -14 12 -10 38 -32 57 -49 19 -16 43 -38
53 -47 10 -10 21 -18 25 -18 4 0 -39 47 -97 105 -57 57 -101 107 -97 111 3 4
55 -39 114 -95 102 -96 123 -112 123 -93 0 9 -606 620 -811 817 -145 140 -308
285 -320 285 -27 0 3 -41 104 -143 62 -63 107 -113 100 -110 -7 3 -13 0 -13
-6 0 -20 -15 -11 -81 47 -149 130 -164 142 -167 133 -2 -5 32 -44 75 -86 76
-74 80 -84 19 -41 -24 17 -228 189 -424 357 -19 16 -36 29 -38 29 -3 0 -15 9
-27 21 -12 12 -88 72 -168 135 -80 63 -154 123 -164 134 -10 11 -23 20 -29 20
-6 0 -22 10 -36 23 -122 109 -119 107 -141 81z"/>
<path d="M6976 7121 c-4 -5 -34 -28 -69 -51 -34 -23 -67 -47 -72 -54 -6 -6
-55 -51 -110 -101 -164 -147 -585 -545 -815 -770 -375 -367 -1105 -1097 -1093
-1093 6 1 123 104 260 228 239 218 285 257 269 232 -12 -20 11 -13 46 14 39
31 -23 -28 -153 -145 -52 -47 -98 -91 -103 -99 -9 -15 24 9 183 136 50 40 91
70 91 68 0 -5 -182 -162 -241 -208 -19 -15 -28 -27 -22 -28 7 0 30 15 50 33
21 18 72 57 113 87 107 77 773 590 911 701 64 52 172 139 240 193 68 55 168
141 222 193 53 51 109 100 125 110 36 22 72 55 72 65 0 18 -28 6 -70 -33 -25
-22 -89 -70 -144 -106 -54 -36 -133 -93 -175 -126 -42 -34 -107 -85 -145 -116
-116 -92 -64 -39 112 114 313 271 372 328 359 342 -7 6 -27 -5 -73 -44 -50
-42 -138 -110 -189 -148 -22 -16 -106 -85 -187 -152 -82 -68 -148 -121 -148
-120 0 2 67 66 149 141 82 76 152 145 155 153 17 43 -24 24 -115 -54 l-64 -55
75 75 c166 168 201 201 337 329 77 73 142 137 142 142 1 4 19 26 41 47 22 22
38 39 34 39 -3 0 2 10 10 22 9 12 16 28 16 35 0 15 -16 17 -24 4z"/>
<path d="M7523 6958 c-104 -76 -274 -193 -303 -208 -93 -49 -752 -532 -1502
-1101 -417 -317 -670 -508 -923 -699 -148 -111 -272 -204 -274 -206 -3 -3 0
-9 6 -15 8 -8 59 17 179 86 93 54 174 100 179 103 6 3 4 -2 -4 -11 -7 -9 -10
-17 -7 -17 4 0 212 104 462 231 250 127 457 229 459 227 2 -2 -33 -23 -78 -46
-69 -36 -159 -83 -265 -141 -13 -7 -22 -15 -20 -17 3 -2 87 32 187 77 101 44
186 78 188 75 3 -3 -7 -10 -23 -16 -50 -19 -394 -193 -390 -197 2 -3 39 10 82
28 43 18 85 32 93 31 22 -1 38 6 346 134 538 223 1065 456 1103 487 10 8 10
12 1 17 -11 7 60 49 216 129 33 16 54 30 47 31 -7 0 -20 -4 -30 -10 -35 -19
-161 -70 -174 -70 -18 0 -237 -91 -442 -184 -93 -42 -171 -75 -173 -73 -1 2
63 37 143 78 81 40 160 82 178 93 17 11 65 37 106 59 41 22 86 47 100 57 14
10 59 37 100 59 84 47 59 48 -41 3 -36 -16 -76 -33 -90 -37 -13 -4 -71 -30
-129 -57 -58 -28 -152 -73 -210 -101 -58 -27 -114 -54 -125 -59 -54 -27 9 14
75 49 41 22 140 78 220 123 80 46 224 125 320 177 96 52 216 118 265 146 99
56 205 141 205 164 0 8 -4 11 -10 8 -5 -3 -40 -14 -77 -24 -63 -16 -273 -119
-488 -238 -49 -27 -121 -66 -160 -85 -61 -30 -158 -84 -285 -155 -19 -11 -109
-62 -200 -113 -91 -51 -171 -97 -178 -103 -7 -5 -15 -8 -18 -5 -2 3 100 65
228 138 264 151 902 533 993 594 198 133 249 166 260 166 7 0 18 7 25 16 8 8
44 33 82 55 76 44 89 62 65 87 -20 20 -18 21 -264 -124 -50 -30 -95 -54 -100
-54 -4 0 -48 -23 -98 -51 -49 -29 -135 -77 -190 -109 -229 -130 -744 -447
-1520 -935 -264 -166 -601 -377 -750 -470 -148 -92 -281 -175 -295 -185 -31
-21 -70 -42 -70 -37 0 11 315 221 333 222 12 0 92 46 177 101 85 55 292 188
460 294 618 392 687 435 785 498 55 36 132 85 170 110 118 76 256 168 335 223
41 29 129 89 195 134 292 199 375 261 402 302 l22 33 -27 -6 c-42 -9 -151 -65
-209 -106 -29 -21 -55 -38 -58 -38 -3 0 -18 -9 -33 -19 -42 -30 -439 -288
-546 -355 -67 -42 0 8 229 173 302 216 455 330 524 389 29 26 62 51 72 56 11
5 19 12 19 16 0 4 26 24 58 46 31 21 58 42 60 46 2 4 35 30 74 58 66 49 69 52
55 73 -7 11 -18 22 -23 24 -5 2 -41 -21 -81 -49z"/>
<path d="M1445 6680 c-10 -16 11 -36 108 -107 48 -36 87 -68 87 -71 0 -13 274
-213 702 -511 337 -236 1378 -946 1428 -976 13 -8 13 -7 1 8 -7 9 -128 103
-267 208 -140 105 -254 193 -254 195 0 3 5 2 10 -1 18 -11 11 4 -12 25 -21 20
-21 21 -3 15 l20 -7 -20 16 c-49 39 -98 81 -109 91 -10 11 -408 327 -602 480
-49 39 -143 109 -209 157 -66 48 -124 91 -130 95 -36 30 -85 64 -85 59 0 -8
97 -104 131 -129 13 -10 17 -15 9 -11 -8 4 -53 35 -100 69 -47 34 -95 68 -107
74 -36 19 -27 -4 15 -35 66 -51 92 -80 37 -43 -27 19 -66 42 -85 53 -19 10
-84 53 -145 96 -60 43 -150 101 -199 130 -49 29 -112 70 -140 91 -53 40 -70
46 -81 29z"/>
<path d="M1306 6435 c-3 -9 31 -38 96 -82 55 -37 108 -75 117 -83 19 -18 98
-70 106 -70 3 0 34 -19 68 -42 142 -95 892 -532 1906 -1110 57 -33 105 -57
108 -54 3 3 -31 28 -76 56 -85 54 -104 72 -48 45 l32 -16 -25 21 c-14 12 -99
71 -190 132 -91 61 -178 123 -195 138 -67 61 -829 577 -1041 704 -71 43 -154
93 -184 111 -30 19 -56 32 -59 30 -5 -6 -66 29 -166 94 -38 25 -86 53 -105 61
-19 8 -60 28 -90 45 -70 37 -108 44 -65 12 17 -12 46 -36 65 -52 63 -55 113
-90 275 -195 236 -152 223 -154 -22 -3 -57 35 -106 63 -109 63 -3 0 -18 8 -32
19 -15 10 -102 57 -194 104 -121 62 -168 82 -172 72z"/>
<path d="M642 6238 c-21 -21 -13 -43 21 -57 52 -22 191 -87 362 -171 201 -99
313 -151 440 -205 55 -24 170 -73 255 -110 170 -74 194 -84 640 -268 263 -108
519 -213 1485 -609 94 -38 201 -83 239 -99 37 -16 71 -29 74 -29 11 0 -33 29
-45 30 -6 0 -53 20 -105 44 -80 38 -485 224 -986 454 -78 35 -141 66 -139 68
4 4 134 -53 497 -221 353 -163 386 -178 375 -167 -5 5 -86 49 -180 97 -180 93
-195 102 -155 90 24 -7 24 -6 5 7 -11 8 -72 43 -135 77 -107 59 -126 73 -118
86 14 22 -1322 766 -1374 765 -7 0 3 -14 22 -31 30 -27 31 -29 7 -14 -18 10
-38 14 -53 11 -18 -5 -59 10 -149 54 -68 33 -129 60 -134 60 -20 0 -11 -25 12
-36 22 -11 164 -90 195 -109 9 -6 28 -16 40 -24 13 -7 22 -15 19 -17 -3 -3
-51 17 -108 45 -57 27 -124 58 -149 69 -25 11 -75 34 -111 51 -37 17 -70 31
-74 31 -4 0 -49 20 -101 45 -51 25 -98 45 -103 45 -18 0 -4 -31 20 -44 13 -7
44 -25 69 -39 25 -14 65 -36 90 -48 25 -12 59 -32 75 -44 28 -20 367 -190 709
-355 138 -67 202 -97 419 -197 42 -20 75 -38 74 -40 -4 -3 -490 215 -528 236
-20 12 -558 244 -684 296 -49 20 -109 45 -132 56 -112 50 -132 58 -188 73 -63
18 -331 126 -376 152 -3 2 -11 -2 -17 -8z"/>
<path d="M7620 5913 c-8 -3 -35 -15 -60 -26 -25 -11 -94 -34 -155 -52 -60 -18
-157 -50 -215 -73 -58 -22 -136 -52 -175 -65 -188 -67 -519 -200 -1222 -493
-656 -273 -777 -324 -787 -335 -15 -14 -2 -11 56 12 99 39 301 109 305 106 2
-2 -56 -27 -129 -55 -73 -28 -126 -51 -118 -52 15 0 44 9 338 105 96 31 176
54 180 51 3 -3 0 -6 -6 -6 -7 0 -12 -4 -12 -9 0 -4 11 -6 25 -3 42 8 28 -6
-17 -18 -48 -13 -112 -40 -106 -45 2 -3 27 2 56 9 34 9 52 11 52 4 0 -15 45
-6 290 57 638 164 899 234 1005 270 39 13 103 33 144 44 76 21 105 37 95 52
-3 5 -15 9 -27 10 -25 0 -32 -4 77 44 l48 21 -48 -2 c-61 -2 -78 -7 -357 -88
-125 -36 -231 -66 -235 -65 -4 0 56 23 133 50 237 85 336 119 350 119 7 0 15
7 19 15 7 18 -25 21 -55 4 -11 -6 -25 -8 -32 -6 -19 7 122 69 288 126 44 16
98 38 120 50 22 11 43 21 47 21 4 0 40 16 81 35 41 19 79 35 85 35 7 0 12 6
12 14 0 16 7 17 -134 -29 -44 -14 -85 -24 -93 -21 -7 3 -28 -1 -46 -8 -17 -8
-72 -26 -122 -41 -49 -15 -101 -32 -115 -37 -69 -28 -333 -118 -337 -115 -5 6
92 47 109 47 8 0 18 4 24 9 5 4 90 41 189 81 99 40 221 93 270 117 50 25 124
57 165 72 57 20 75 31 75 46 0 20 -12 26 -35 18z"/>
<path d="M1023 5873 c-23 -9 -14 -29 20 -46 17 -9 64 -28 102 -43 39 -14 95
-39 125 -55 30 -15 96 -44 145 -63 50 -19 151 -57 225 -86 315 -121 2030 -730
2056 -730 29 0 -74 44 -581 245 -944 376 -1803 705 -1840 705 -12 0 -130 38
-225 73 -8 3 -21 3 -27 0z"/>
<path d="M840 5757 c0 -31 204 -116 555 -231 439 -144 796 -259 900 -290 66
-19 323 -97 570 -172 832 -252 908 -275 919 -271 17 6 -100 48 -1059 384 -165
57 -397 138 -515 180 -227 79 -677 229 -870 289 -63 20 -155 49 -205 64 -112
35 -133 40 -209 46 -33 3 -67 7 -73 9 -7 3 -13 -1 -13 -8z"/>
<path d="M1112 5503 c-16 -6 65 -45 162 -77 39 -13 196 -59 348 -102 153 -43
276 -79 274 -81 -1 -2 -81 16 -177 38 -270 64 -503 108 -513 98 -13 -12 33
-30 177 -69 65 -18 116 -34 114 -36 -2 -2 -84 13 -183 34 -220 48 -296 62
-348 68 -23 2 -54 7 -71 9 -65 12 -135 12 -135 0 0 -17 103 -61 181 -79 35 -8
129 -30 209 -50 154 -37 442 -102 625 -141 61 -13 128 -28 150 -33 70 -18 11
-13 -91 7 -54 11 -137 27 -184 35 -47 8 -148 27 -225 41 -210 38 -550 85 -614
85 -31 0 -83 5 -116 10 -33 5 -84 12 -112 16 -48 5 -53 3 -53 -15 0 -17 9 -20
68 -26 37 -4 105 -20 152 -35 83 -28 346 -85 525 -114 50 -9 241 -40 425 -71
353 -59 457 -75 1005 -155 187 -28 503 -75 702 -105 340 -52 423 -62 411 -50
-2 3 -33 11 -69 19 -53 12 -58 14 -29 16 32 1 30 3 -25 19 -33 9 -126 32 -207
51 -81 18 -145 38 -142 42 3 5 -7 6 -23 3 -21 -4 -23 -3 -8 3 15 7 -2 14 -73
32 -51 12 -91 24 -89 27 3 2 67 -12 144 -32 140 -35 194 -44 163 -26 -8 5
-116 39 -240 76 -124 37 -346 103 -495 147 -484 143 -963 280 -1065 303 -8 2
-85 22 -170 44 -85 22 -195 47 -245 56 -49 9 -97 18 -105 20 -8 2 -21 1 -28
-2z"/>
<path d="M7750 5435 c-36 -7 -96 -18 -135 -25 -38 -7 -124 -25 -190 -40 -66
-16 -221 -51 -345 -79 -124 -28 -385 -91 -580 -140 -726 -182 -1477 -373
-1530 -389 -102 -30 -24 -23 136 12 477 103 558 119 562 107 5 -15 37 -14 54
2 7 6 40 13 73 14 77 3 51 -8 -75 -32 -52 -10 -108 -24 -125 -31 l-30 -13 29
-1 c33 0 464 65 956 146 375 61 412 68 698 130 111 24 216 44 232 44 20 0 30
5 30 15 0 11 -7 14 -22 10 -88 -20 -122 -24 -183 -24 -39 0 -101 -7 -140 -15
-38 -8 -71 -13 -74 -11 -2 2 10 7 25 10 43 10 94 35 94 45 0 6 -5 10 -11 10
-8 0 -7 5 1 15 11 13 10 14 -6 9 -17 -6 -17 -5 -4 8 8 9 80 30 160 48 167 37
270 64 296 78 11 5 37 13 59 16 102 18 253 75 238 90 -10 10 -123 5 -193 -9z"/>
<path d="M7710 5092 c-119 -13 -693 -85 -925 -117 -110 -15 -190 -27 -1130
-169 -640 -97 -697 -106 -715 -117 -13 -7 -13 -8 0 -9 8 0 102 9 209 21 133
15 199 19 210 12 11 -7 83 -4 226 9 116 11 262 19 325 19 217 1 977 63 1029
85 19 8 151 28 295 44 340 39 352 42 339 77 -5 13 -21 14 -102 10 l-96 -6 125
19 c346 52 443 73 499 109 38 25 -117 31 -289 13z"/>
<path d="M1264 5011 c4 -6 22 -11 39 -12 18 -1 43 -5 57 -9 l25 -8 -25 -2
c-47 -3 8 -18 125 -34 66 -9 84 -13 45 -11 -77 6 -106 -7 -75 -31 18 -14 8
-15 -120 -10 -77 4 -152 9 -167 12 -16 3 -28 1 -28 -4 0 -6 30 -14 68 -18 37
-3 87 -10 112 -15 39 -7 36 -8 -20 -4 -299 21 -454 25 -532 15 -46 -7 -85 -14
-87 -16 -16 -15 117 -64 174 -64 19 0 101 -6 182 -14 82 -8 229 -20 328 -26
99 -6 234 -15 300 -20 137 -10 204 -14 700 -35 198 -9 374 -17 390 -19 90 -9
-146 -3 -560 14 -259 10 -677 22 -930 26 -416 6 -467 5 -537 -11 -43 -9 -78
-20 -78 -24 0 -9 113 -30 228 -41 192 -19 906 -30 1882 -29 547 1 979 5 960 9
l-35 7 32 2 c53 2 46 18 -10 24 -28 3 -171 16 -315 29 -145 12 -255 25 -245
29 13 6 8 8 -17 8 -57 2 -110 13 -104 22 3 5 1 9 -5 9 -6 0 -8 7 -5 15 4 8 4
15 1 15 -2 0 -117 16 -253 35 -137 19 -332 46 -434 60 -102 14 -214 30 -250
35 -56 8 -263 33 -385 46 -184 19 -403 46 -419 51 -12 3 -16 1 -12 -6z"/>
<path d="M8299 4796 c-2 -2 -202 -7 -444 -10 -546 -6 -729 -14 -1785 -76 -465
-27 -973 -57 -1130 -65 -157 -9 -287 -18 -289 -20 -4 -5 620 -8 1744 -8 530
-1 854 3 985 12 107 7 197 14 199 17 14 14 -31 25 -89 21 -36 -2 -76 -1 -90 3
-14 3 75 9 196 13 122 4 282 13 355 21 74 8 203 18 287 22 l152 7 0 33 c0 33
-1 34 -43 34 -24 0 -46 -2 -48 -4z"/>
<path d="M4560 4610 c0 -17 7 -19 68 -19 37 0 146 -5 242 -11 96 -5 202 -10
235 -10 45 0 56 -3 45 -11 -11 -8 -4 -9 27 -5 23 3 43 2 45 -3 2 -7 310 -41
372 -41 9 0 14 -4 11 -10 -3 -5 3 -10 15 -10 12 0 31 -5 43 -12 12 -7 76 -20
142 -29 66 -10 143 -23 170 -29 61 -13 532 -73 740 -95 83 -8 172 -18 198 -21
31 -3 53 -1 63 7 11 9 43 10 122 5 59 -4 117 -9 130 -13 17 -4 22 -1 22 15 0
21 -9 21 242 8 94 -5 76 10 -23 18 -173 16 -115 24 149 23 177 -1 271 1 269 8
-2 6 -48 13 -103 16 -54 4 -133 14 -174 23 -41 8 -93 17 -115 19 -22 2 145 2
370 0 226 -2 435 -5 466 -8 55 -6 57 -5 62 22 3 14 3 32 0 38 -2 8 -52 14
-143 19 -176 9 -269 15 -297 21 -90 20 -1053 47 -2338 65 -807 12 -999 18
-1003 31 -2 5 -15 9 -28 9 -17 0 -24 -6 -24 -20z"/>
<path d="M1595 4588 c-158 -4 -356 -17 -455 -28 -96 -11 -193 -21 -215 -22
-22 0 5 -5 60 -11 55 -5 271 -10 480 -10 209 -1 367 -2 350 -4 -16 -1 -142 -7
-280 -13 -331 -15 -652 -37 -800 -55 -259 -31 -304 -35 -363 -35 -33 0 -64 -5
-67 -11 -9 -13 3 -61 13 -55 5 3 136 7 293 11 606 13 1002 38 2374 150 237 19
558 44 715 55 157 12 292 23 302 26 9 3 19 1 22 -4 3 -5 -25 -12 -62 -15 -37
-3 -184 -20 -327 -37 -143 -17 -294 -31 -335 -32 -219 0 -1604 -129 -1860
-173 -47 -8 -131 -20 -187 -26 -56 -7 -107 -16 -114 -20 -30 -18 7 -21 127
-10 69 7 128 10 130 8 3 -2 -37 -9 -88 -16 -51 -6 -140 -19 -198 -27 -58 -8
-116 -17 -130 -19 -93 -13 -123 -18 -190 -32 -41 -8 -158 -28 -259 -43 -101
-16 -188 -33 -193 -38 -6 -6 -8 -18 -6 -28 4 -23 27 -24 238 -1 85 9 191 19
235 22 118 9 572 68 965 124 382 55 477 70 1320 199 322 50 668 102 770 117
102 14 196 30 210 35 l25 8 -25 1 c-20 1 -22 3 -10 11 20 13 13 13 -400 -6
-191 -8 -372 -13 -401 -11 -33 2 -16 4 44 5 63 1 96 6 92 12 -7 12 -1378 11
-1800 -2z"/>
<path d="M4540 4525 c0 -3 21 -15 46 -25 194 -84 711 -326 720 -338 6 -8 16
-12 22 -8 6 3 16 0 24 -7 15 -15 138 -81 253 -136 44 -22 175 -85 290 -141
613 -298 1061 -504 1165 -534 30 -9 89 -33 131 -54 70 -36 107 -44 93 -20 -8
13 22 4 106 -32 147 -63 241 -100 255 -100 9 0 66 -22 127 -50 61 -27 115 -50
120 -50 4 0 36 -13 70 -30 34 -16 68 -30 75 -30 12 0 39 48 31 55 -2 2 -77 35
-168 75 -91 40 -194 89 -230 110 -36 20 -155 77 -265 125 -110 48 -285 124
-390 170 -234 103 -365 158 -565 240 -234 95 -1669 687 -1794 739 -116 49
-116 49 -116 41z"/>
<path d="M5070 4499 c0 -4 15 -9 33 -12 191 -33 496 -88 737 -132 285 -53 884
-156 1100 -190 58 -9 127 -20 153 -26 26 -5 69 -9 95 -9 26 0 106 -9 177 -20
72 -10 173 -22 225 -26 52 -3 128 -12 169 -20 55 -10 78 -11 88 -3 24 21 -4
35 -93 49 -61 9 -82 15 -73 22 10 7 8 8 -8 5 -13 -3 -23 -2 -23 2 0 5 -57 16
-127 25 -141 19 -391 58 -523 81 -104 18 -307 47 -775 109 -1058 141 -1155
153 -1155 145z"/>
<path d="M4074 4373 c-302 -268 -691 -610 -707 -622 -30 -24 -18 -2 24 44 23
25 37 45 32 45 -6 0 -39 -22 -74 -48 -103 -77 -800 -644 -968 -786 -84 -72
-172 -146 -195 -164 -22 -18 -77 -68 -121 -110 -44 -43 -108 -101 -142 -131
-68 -59 -77 -92 -11 -39 86 70 103 82 89 65 -18 -23 1 -22 22 1 10 10 14 22
10 27 -5 4 -3 5 4 2 6 -4 18 -1 25 6 8 8 41 35 73 61 56 45 54 42 -23 -34 -83
-82 -99 -107 -45 -74 28 18 2 -7 -192 -194 -55 -53 -198 -192 -318 -310 -211
-207 -218 -214 -201 -233 9 -10 21 -19 26 -19 5 0 35 24 66 53 31 29 71 63 87
76 17 12 50 41 75 64 25 23 79 69 120 101 41 33 100 83 130 111 30 29 98 90
150 136 191 168 523 481 1265 1189 634 605 877 835 904 854 l26 20 -26 -30
c-54 -61 -372 -407 -583 -634 -121 -129 -336 -361 -479 -515 -143 -154 -290
-311 -326 -350 -74 -78 -258 -278 -313 -340 -19 -22 -100 -112 -179 -201 -173
-193 -341 -390 -389 -455 -19 -26 -88 -108 -152 -182 -65 -74 -118 -139 -118
-144 0 -6 9 -18 20 -28 19 -17 20 -17 42 11 36 46 143 160 258 274 58 58 127
130 154 160 27 30 139 156 250 279 111 123 281 316 379 430 98 113 200 231
226 261 26 30 126 147 221 260 191 225 628 735 868 1013 134 155 162 197 134
197 -4 0 -57 -44 -118 -97z"/>
<path d="M3965 4371 c-77 -48 -250 -157 -385 -241 -222 -139 -539 -313 -524
-288 4 6 1 8 -7 6 -8 -3 -13 -10 -12 -16 2 -6 -3 -9 -10 -7 -12 5 -116 -53
-632 -358 -425 -251 -545 -328 -545 -353 0 -5 39 4 53 12 21 12 -5 -10 -78
-67 -76 -59 -150 -109 -162 -109 -16 -1 -53 -39 -53 -54 0 -8 -10 -21 -22 -27
-13 -7 -56 -36 -95 -66 -40 -29 -76 -53 -79 -53 -3 0 -27 -17 -53 -39 -50 -42
-159 -119 -195 -138 -12 -7 -39 -27 -58 -45 -20 -18 -63 -50 -97 -70 -42 -27
-59 -42 -55 -53 9 -23 23 -19 103 35 41 28 80 50 86 50 6 0 29 13 51 29 22 16
71 46 109 66 116 62 192 108 475 293 389 253 713 470 1190 796 74 50 284 193
465 317 286 196 472 323 631 431 45 30 60 35 48 16 -4 -7 -3 -8 5 -4 11 7 6
27 -7 25 -4 0 -70 -40 -147 -88z"/>
<path d="M5210 4441 c8 -6 50 -18 93 -28 43 -9 72 -20 66 -24 -6 -4 7 -10 30
-14 23 -4 47 -12 53 -19 7 -7 23 -10 36 -8 16 3 23 1 19 -5 -13 -21 86 -48
903 -253 606 -153 649 -163 801 -190 166 -29 193 -26 94 11 -44 17 -100 37
-125 44 l-45 15 55 -6 c30 -3 113 -17 183 -31 71 -14 131 -22 135 -19 11 12
-13 21 -135 50 -65 16 -122 33 -128 38 -7 7 -3 8 10 5 59 -16 252 -46 330 -51
50 -3 123 -13 163 -22 67 -15 95 -14 79 3 -4 3 -39 12 -79 20 -40 7 -122 29
-183 48 -113 36 -494 115 -1013 210 -349 64 -1114 198 -1222 215 -41 6 -88 13
-105 16 -23 4 -26 3 -15 -5z"/>
<path d="M4229 4388 c-12 -23 -36 -70 -54 -103 -18 -33 -70 -132 -115 -220
-46 -88 -163 -311 -260 -495 -571 -1081 -689 -1308 -874 -1680 -81 -162 -157
-315 -170 -340 -13 -25 -40 -84 -60 -132 -20 -48 -72 -160 -115 -248 -77 -159
-78 -161 -57 -176 11 -7 26 -14 32 -14 6 0 30 37 53 83 23 45 61 118 86 162
25 44 48 87 52 95 3 8 12 22 18 30 33 40 492 956 625 1245 59 129 579 1223
720 1517 83 171 148 313 146 315 -3 3 -15 -15 -27 -39z"/>
<path d="M4580 4415 c13 -15 94 -86 545 -475 209 -180 465 -411 465 -420 0
-21 691 -620 716 -620 7 0 55 -35 106 -78 51 -43 131 -107 178 -144 47 -36 96
-76 111 -89 14 -13 65 -55 113 -94 48 -38 122 -98 164 -133 43 -35 100 -78
129 -97 28 -19 81 -60 118 -90 37 -30 71 -55 75 -55 5 0 39 -25 76 -55 52 -43
70 -53 80 -44 23 19 16 32 -51 84 -35 28 -64 55 -64 61 -1 7 -11 19 -24 27
-22 14 -90 74 -233 206 -105 97 -153 137 -544 461 -172 142 -1685 1349 -1899
1514 -42 33 -69 51 -61 41z"/>
<path d="M3809 4218 c-145 -105 -280 -201 -301 -212 -20 -12 -77 -48 -125 -80
-48 -33 -107 -72 -130 -87 -63 -41 -545 -376 -738 -513 -278 -195 -504 -365
-595 -444 -47 -41 -111 -90 -142 -110 -55 -36 -70 -56 -47 -64 6 -2 -44 -47
-112 -100 -68 -53 -140 -111 -159 -129 -19 -18 -71 -62 -115 -97 -44 -35 -85
-70 -90 -77 -12 -14 -77 -69 -119 -99 -20 -15 -23 -22 -15 -37 14 -27 25 -24
78 19 25 21 81 63 124 92 43 30 101 72 129 93 29 20 56 37 60 37 8 0 52 30 93
63 12 10 111 83 265 196 118 87 695 533 900 696 63 50 237 187 385 305 149
117 290 230 315 250 25 20 164 130 310 245 146 114 267 211 270 215 3 4 14 12
25 18 11 6 15 12 8 12 -6 0 -130 -86 -274 -192z"/>
<path d="M4660 4396 c0 -2 97 -72 215 -156 191 -135 244 -176 203 -155 -27 14
63 -61 177 -147 66 -50 128 -101 138 -114 15 -19 117 -104 247 -206 155 -121
221 -172 399 -308 112 -85 266 -204 344 -264 78 -59 151 -112 162 -116 19 -7
127 -82 187 -130 25 -19 27 -19 21 -3 -3 10 -15 29 -27 43 -19 23 -20 24 -1 9
44 -35 185 -129 260 -173 44 -26 90 -54 103 -63 12 -8 22 -11 22 -5 0 18 -140
142 -264 234 -207 154 -179 139 102 -54 78 -54 145 -98 147 -98 3 0 18 -8 33
-19 73 -51 182 -120 182 -116 0 11 184 -103 296 -182 73 -52 73 -52 88 -31 14
19 13 23 -9 39 -13 11 -26 19 -30 19 -8 0 -67 43 -116 85 -19 16 -70 55 -113
85 -43 30 -101 73 -130 96 -28 22 -85 64 -126 92 -41 28 -118 81 -170 117
-222 155 -947 631 -1595 1049 -104 67 -313 202 -463 299 -261 169 -282 182
-282 173z"/>
<path d="M4723 4388 c66 -46 170 -111 612 -381 72 -44 144 -90 160 -102 87
-66 925 -588 1058 -660 49 -26 114 -62 145 -81 32 -18 91 -51 132 -72 41 -21
143 -79 225 -128 83 -49 161 -95 175 -102 25 -13 85 -45 198 -108 34 -19 62
-32 62 -29 0 3 12 0 28 -8 77 -39 127 -62 137 -62 6 0 48 -22 93 -49 46 -27
85 -46 87 -44 3 3 -36 28 -85 58 -50 29 -94 58 -98 65 -4 7 -27 23 -52 36 -69
37 -100 60 -100 74 0 11 -104 78 -195 126 -16 8 -176 103 -355 211 -179 107
-397 236 -485 285 -88 50 -279 158 -425 240 -146 82 -409 230 -585 328 -176
98 -365 203 -420 235 -182 104 -347 193 -312 168z"/>
<path d="M3335 4379 c-49 -14 -309 -67 -325 -66 -8 0 -33 -3 -55 -7 -24 -5
-36 -4 -30 2 9 8 32 13 153 37 17 4 32 10 32 15 0 11 -199 5 -275 -8 -33 -6
-222 -38 -420 -71 -681 -116 -943 -170 -930 -192 3 -4 31 -6 63 -4 52 4 49 2
-42 -20 -54 -13 -102 -28 -105 -33 -3 -6 -26 -15 -51 -21 l-45 -11 45 6 c25 3
62 7 82 10 44 4 243 38 351 60 89 18 140 14 57 -4 -30 -7 -91 -22 -135 -34
-64 -17 -75 -23 -55 -28 20 -5 9 -10 -50 -23 -165 -38 -286 -69 -301 -77 -8
-4 -47 -16 -87 -25 -40 -10 -72 -21 -72 -25 0 -4 -17 -11 -37 -14 -81 -14 -93
-18 -93 -30 0 -10 14 -9 64 4 35 10 67 16 69 13 7 -7 115 12 342 62 136 30
184 41 525 124 135 33 304 74 375 91 72 17 166 42 210 55 69 21 264 71 695
181 104 26 147 45 100 43 -14 -1 -38 -5 -55 -10z"/>
<path d="M5269 4348 c39 -13 59 -23 51 -28 -18 -11 7 -23 124 -60 93 -30 125
-46 69 -35 -16 3 1 -6 37 -21 36 -15 68 -33 72 -39 4 -7 21 -18 38 -25 17 -7
29 -14 27 -16 -2 -2 -70 19 -152 46 -82 27 -151 48 -152 46 -17 -17 1547 -631
1722 -676 28 -8 92 -28 143 -47 96 -34 122 -39 122 -24 0 4 -32 18 -70 30 -39
13 -111 43 -160 67 -79 39 -189 85 -378 156 -29 11 -51 22 -49 24 2 3 94 -25
203 -61 110 -36 210 -67 224 -69 14 -2 42 -10 63 -19 20 -9 37 -12 37 -6 0 5
-5 9 -10 9 -6 0 -30 9 -53 21 -23 11 -85 36 -137 56 -52 19 -108 39 -123 45
-15 6 -26 12 -24 15 3 2 22 -3 43 -11 56 -20 131 -42 194 -56 30 -6 79 -18
108 -27 69 -19 76 -12 12 11 -28 10 -50 22 -50 27 0 5 -32 18 -71 30 -38 12
-68 23 -66 25 2 2 83 -19 180 -47 142 -41 180 -49 192 -39 13 10 13 14 0 27
-14 13 -323 119 -465 159 -33 9 -59 18 -57 20 2 2 109 -25 238 -60 129 -35
295 -73 371 -85 75 -11 148 -25 163 -31 14 -5 34 -10 43 -9 9 0 -21 13 -68 29
-47 15 -119 42 -160 60 -73 31 -139 53 -270 89 -306 87 -443 125 -615 172
-104 28 -1069 276 -1228 315 -150 37 -220 44 -118 12z"/>
<path d="M3315 4320 c-210 -59 -255 -70 -280 -70 -24 0 -106 -20 -525 -130
-413 -108 -520 -138 -745 -210 -162 -52 -235 -79 -215 -80 29 -1 -238 -90
-385 -127 -33 -9 -62 -19 -65 -23 -3 -4 -22 -13 -43 -20 -21 -6 -36 -14 -34
-16 2 -2 24 3 48 11 24 9 55 13 69 10 14 -3 55 3 90 14 36 11 94 23 130 27 36
4 72 10 81 15 9 4 47 17 85 28 38 11 105 31 149 44 44 14 150 45 235 70 422
124 1415 436 1530 480 43 16 -37 2 -125 -23z"/>
<path d="M4888 4324 c24 -17 821 -450 1400 -761 490 -262 1127 -589 1197 -613
78 -27 135 -40 135 -30 0 14 -45 57 -93 88 -26 18 -50 32 -52 32 -2 0 -48 25
-102 56 -253 146 -785 417 -1448 740 -297 144 -650 316 -785 383 -224 111
-312 147 -252 105z"/>
<path d="M3675 4321 c-13 -11 -267 -112 -272 -107 -2 2 42 23 97 47 55 24 97
45 92 47 -5 1 -101 -31 -213 -72 -111 -42 -204 -74 -206 -72 -2 1 46 22 107
45 105 40 241 100 230 100 -3 1 -34 -8 -70 -19 -36 -11 -66 -20 -67 -20 -1 0
0 7 3 15 4 10 2 14 -7 11 -12 -5 -468 -145 -639 -198 -390 -119 -1072 -344
-1265 -417 -60 -23 -129 -49 -152 -57 -24 -9 -43 -22 -43 -30 0 -19 49 -18 97
1 35 14 253 81 298 92 16 3 17 2 5 -5 -14 -9 -41 -20 -215 -82 -33 -12 -128
-55 -211 -96 -83 -41 -156 -74 -162 -74 -7 0 -12 -4 -12 -10 0 -5 21 0 47 11
25 11 92 31 149 44 56 14 189 55 295 91 107 37 208 70 224 75 17 4 79 26 139
49 60 22 111 39 113 37 2 -2 -25 -14 -59 -27 -129 -47 -612 -251 -662 -280
-29 -16 -99 -50 -157 -74 -57 -25 -105 -50 -108 -57 -4 -14 14 -9 129 36 47
18 105 35 128 39 24 4 130 40 235 80 249 96 234 91 222 79 -5 -5 -46 -26 -90
-45 -187 -85 -216 -98 -220 -98 -3 0 -40 -22 -84 -49 -92 -58 -215 -121 -235
-121 -19 0 -48 -29 -41 -41 4 -5 22 -2 43 8 103 45 221 91 252 98 38 7 495
204 809 347 107 48 196 86 198 85 2 -2 -32 -20 -74 -40 -172 -78 -562 -273
-628 -312 -38 -24 -110 -64 -160 -90 -49 -26 -94 -52 -100 -57 -16 -17 47 1
75 21 14 9 70 34 125 55 88 33 211 88 395 176 68 32 90 41 90 35 0 -3 -28 -19
-62 -36 -35 -17 -81 -43 -103 -58 -22 -14 -57 -34 -77 -45 -23 -11 -35 -23
-31 -32 3 -8 1 -14 -4 -14 -15 0 -191 -108 -213 -130 -24 -24 -19 -25 23 -5
30 15 31 15 12 0 -11 -9 -41 -27 -66 -40 -25 -13 -67 -40 -93 -60 -27 -20 -71
-51 -100 -68 -28 -17 -53 -34 -56 -37 -3 -3 -31 -19 -62 -35 -32 -15 -58 -34
-58 -42 0 -21 29 -15 73 17 39 28 175 90 240 110 16 5 56 24 90 43 34 19 89
49 122 67 33 18 89 49 125 68 276 150 694 389 1280 732 546 320 570 334 566
337 -1 2 -117 -56 -257 -128 -140 -72 -263 -132 -274 -133 -11 -2 -40 -13 -65
-26 -25 -13 -46 -22 -47 -21 -12 6 -33 -1 -27 -11 4 -6 3 -8 -3 -5 -6 4 -43
-9 -82 -28 -139 -68 -84 -33 94 58 209 108 355 187 355 192 0 2 -44 -16 -97
-41 -53 -25 -133 -60 -177 -79 -45 -18 -135 -59 -200 -89 -65 -31 -120 -55
-123 -53 -2 2 101 53 229 112 520 241 671 315 642 315 -5 0 -14 -4 -19 -9z"/>
<path d="M3835 4102 c-67 -64 -265 -256 -440 -426 -514 -497 -1327 -1316
-1475 -1484 -30 -35 -69 -77 -86 -95 -121 -125 -147 -158 -136 -169 9 -9 24
-1 63 37 30 29 49 42 45 31 -4 -11 51 37 121 105 142 139 836 838 905 911 23
25 63 68 88 95 24 26 157 167 295 313 138 146 287 303 331 350 43 46 93 98
109 115 147 154 311 335 303 335 -1 0 -57 -53 -123 -118z"/>
<path d="M4750 4153 c0 -4 23 -35 50 -67 27 -33 46 -64 43 -69 -3 -6 -1 -7 4
-4 6 4 46 -35 89 -86 l77 -92 -63 60 -63 60 64 -85 c145 -194 1171 -1467 1209
-1500 3 -3 51 -59 107 -125 55 -66 127 -145 159 -176 33 -30 85 -85 117 -122
32 -37 63 -64 68 -61 5 3 -12 31 -39 62 -27 31 -75 95 -105 142 -31 47 -62 92
-69 100 -7 8 -31 37 -52 65 -22 27 -80 100 -131 160 -203 245 -227 275 -222
275 2 0 49 -51 104 -112 372 -420 383 -432 568 -620 43 -44 113 -98 127 -98 4
0 8 4 8 9 0 15 -87 140 -134 192 -22 26 -58 69 -78 95 -21 27 -48 60 -60 74
-64 70 -280 313 -328 370 -45 53 -314 351 -370 410 -23 24 -260 277 -421 450
-80 85 -256 275 -392 422 -245 264 -267 287 -267 271z"/>
<path d="M4710 4134 c0 -10 60 -93 315 -439 222 -299 274 -375 261 -375 -2 0
-34 40 -71 90 -166 219 -33 8 263 -415 135 -192 354 -499 362 -505 4 -3 33
-41 66 -85 32 -44 62 -84 67 -90 4 -5 17 -23 28 -38 12 -15 23 -26 26 -24 6 6
-19 57 -28 57 -6 0 -115 169 -142 220 -13 24 57 -56 130 -150 37 -47 75 -91
85 -98 10 -8 60 -68 110 -135 91 -121 164 -212 203 -253 11 -12 31 -37 45 -55
36 -48 121 -139 142 -150 15 -8 16 -5 8 22 -5 16 -23 52 -39 80 -17 27 -31 52
-31 55 0 2 -5 10 -10 17 -24 28 -46 57 -60 77 -15 23 -66 91 -384 510 -179
238 -401 522 -550 705 -49 61 -231 288 -404 505 -298 373 -392 487 -392 474z"/>
<path d="M4640 4104 c0 -5 43 -86 96 -179 113 -202 126 -225 120 -225 -2 0
-41 65 -85 145 -73 128 -101 170 -101 150 0 -4 99 -203 221 -442 122 -239 219
-436 217 -439 -3 -2 -37 58 -76 134 -76 147 -101 187 -101 162 -1 -8 38 -96
84 -194 47 -99 83 -181 81 -183 -1 -2 -52 99 -111 224 -186 391 -276 575 -281
570 -5 -4 -3 -10 35 -105 12 -29 17 -51 11 -47 -19 12 -10 -25 36 -136 25 -61
43 -113 41 -116 -3 -2 -9 9 -15 25 -28 80 -126 302 -133 302 -10 0 19 -82 229
-655 207 -564 359 -971 382 -1020 5 -11 41 -103 81 -205 79 -203 100 -250 189
-420 65 -124 72 -131 37 -37 -30 80 -53 150 -67 207 -6 25 -17 61 -25 80 -8
19 -45 121 -84 225 -38 105 -81 219 -96 254 -14 35 -24 65 -22 68 3 2 33 -63
67 -144 34 -81 91 -209 125 -283 35 -74 66 -147 70 -162 7 -29 33 -44 48 -29
7 7 -2 41 -26 103 -95 240 -107 272 -104 275 2 1 34 -64 71 -145 38 -81 88
-178 111 -217 24 -38 64 -114 90 -167 25 -54 51 -98 56 -98 12 0 13 -1 -20 71
-15 35 -45 114 -65 174 -35 102 -117 293 -311 720 -42 93 -88 191 -101 218
-34 67 -46 100 -34 92 6 -3 10 -10 10 -15 0 -14 159 -332 218 -437 29 -50 63
-116 77 -146 24 -54 41 -75 52 -63 6 6 -8 42 -59 154 -16 34 -26 67 -23 72 10
17 28 -14 185 -305 56 -104 114 -206 129 -225 28 -36 102 -161 114 -193 8 -22
35 -33 49 -19 13 13 -67 185 -264 562 -176 336 -208 400 -204 400 2 0 19 -26
37 -57 17 -32 40 -71 49 -88 28 -49 81 -136 125 -205 23 -36 83 -138 134 -227
51 -89 99 -167 107 -174 8 -6 14 -15 14 -20 0 -25 155 -237 174 -238 16 -1 -2
73 -33 139 -44 91 -86 166 -218 389 -64 107 -123 210 -132 230 -9 20 -24 47
-33 61 -8 14 -26 44 -39 67 -44 79 -195 327 -459 753 -145 234 -293 475 -330
535 -262 431 -320 521 -320 499z"/>
<path d="M4010 4031 c-23 -39 -44 -71 -47 -71 -3 0 7 21 22 46 15 25 25 48 22
50 -2 3 -48 -62 -101 -145 -54 -82 -105 -151 -114 -153 -10 -3 -64 -73 -120
-156 -57 -84 -105 -152 -107 -152 -2 0 63 102 145 227 83 124 150 231 150 236
0 6 -34 -35 -76 -89 -136 -178 -112 -135 46 81 81 112 103 145 97 151 -2 3
-62 -67 -131 -156 -132 -166 -181 -219 -78 -82 32 42 67 91 77 107 18 30 18
30 -1 10 -45 -45 -185 -208 -469 -545 -165 -195 -333 -395 -375 -445 -87 -103
-427 -521 -545 -669 -71 -90 -195 -269 -195 -282 0 -3 -4 -10 -10 -17 -56 -68
-88 -117 -77 -117 7 0 29 21 49 47 20 27 74 87 120 134 123 127 266 296 476
562 30 37 55 67 57 67 3 0 -108 -149 -245 -332 -138 -182 -250 -337 -250 -344
0 -7 -28 -53 -63 -101 -83 -115 -82 -114 -66 -124 23 -14 26 -12 88 69 32 43
81 103 108 133 27 30 91 110 143 179 51 69 109 143 129 165 20 22 46 54 58 70
106 144 156 212 166 220 8 7 8 6 1 -5 -6 -8 -54 -76 -106 -150 -180 -256 -305
-445 -351 -531 -26 -48 -65 -111 -87 -140 -46 -61 -55 -96 -15 -59 14 13 25
28 25 33 0 9 71 100 99 127 36 34 113 133 206 265 54 77 118 167 142 200 24
33 78 108 119 168 42 59 77 107 79 107 2 0 -55 -91 -127 -202 -310 -478 -338
-529 -290 -528 11 1 51 52 111 140 52 77 96 140 99 140 2 0 -4 -12 -14 -27
-37 -57 -152 -250 -191 -323 -22 -41 -63 -113 -90 -160 -41 -71 -79 -167 -70
-177 2 -1 21 20 42 48 22 28 48 60 58 72 11 12 25 34 33 48 7 15 60 96 116
181 57 85 110 165 118 179 54 90 262 424 267 428 8 9 -14 -33 -67 -124 -75
-128 -281 -498 -354 -639 -63 -118 -95 -194 -115 -271 -10 -35 -48 -102 -74
-128 -19 -19 -15 -37 8 -37 8 0 17 12 20 28 4 15 11 36 17 47 7 11 18 32 26
48 7 15 17 27 22 27 5 0 18 15 29 33 11 17 31 43 44 57 39 42 229 363 454 770
132 238 883 1641 952 1779 18 34 30 65 28 68 -3 2 -24 -27 -47 -66z"/>
<path d="M4534 4037 c3 -11 8 -31 11 -45 5 -24 3 -23 -10 6 -18 39 -27 41 -20
5 5 -27 5 -27 -5 -4 -19 43 -21 15 -4 -58 9 -40 14 -74 12 -77 -3 -2 -13 32
-23 76 -20 90 -41 119 -33 49 3 -24 3 -36 1 -26 -6 25 -21 21 -17 -5 9 -58 86
-589 91 -632 4 -34 3 -47 -5 -42 -6 3 -12 -2 -14 -11 -3 -10 -8 6 -12 34 -9
59 -26 81 -26 34 0 -102 124 -1313 157 -1531 8 -58 25 -172 37 -254 13 -88 27
-151 34 -154 9 -3 10 10 6 45 -3 26 -7 53 -9 60 -2 6 1 13 7 15 7 3 7 37 -1
118 -6 63 -13 140 -16 170 l-4 55 9 -45 c5 -25 12 -60 15 -78 4 -19 10 -30 17
-26 6 4 8 32 5 78 l-6 71 14 -69 c8 -38 20 -73 26 -77 12 -7 32 -106 49 -249
13 -104 39 -232 50 -245 4 -5 11 -30 15 -55 9 -63 45 -181 54 -176 8 5 6 126
-4 241 -7 75 -53 377 -111 723 -14 84 -24 155 -22 157 2 2 21 -82 41 -188 80
-409 158 -755 188 -831 39 -96 52 -118 61 -102 20 36 -15 306 -77 596 -13 63
-40 196 -59 295 -19 99 -51 250 -71 335 -20 85 -43 187 -51 225 -9 39 -83 366
-165 728 -83 363 -148 664 -147 669 2 6 50 -191 107 -438 263 -1147 427 -1825
491 -2028 15 -50 42 -138 60 -195 29 -96 47 -131 66 -131 12 0 -3 141 -25 230
-12 47 -46 191 -77 320 -30 129 -68 291 -85 359 -16 68 -28 126 -26 127 2 2
22 -63 46 -144 36 -126 109 -376 182 -622 10 -36 40 -108 67 -160 l47 -95 3
51 c4 71 -34 248 -103 479 -15 50 -46 158 -70 240 -24 83 -55 191 -70 240 -69
230 -44 166 95 -245 121 -356 164 -480 179 -515 38 -88 95 -205 100 -205 3 0
15 -27 25 -61 21 -65 53 -120 37 -64 -5 17 -16 48 -25 70 -10 22 -19 65 -22
95 -6 76 -11 98 -51 235 -104 355 -225 707 -714 2070 -99 275 -187 518 -196
540 -17 41 -42 76 -29 42z"/>
<path d="M4733 4016 c3 -7 83 -137 178 -287 95 -151 205 -329 246 -397 214
-362 686 -1094 748 -1162 12 -14 62 -86 111 -160 48 -74 104 -155 124 -180 20
-25 60 -79 90 -120 29 -41 54 -76 55 -78 5 -7 35 11 35 22 0 6 -27 54 -60 106
-33 52 -60 100 -60 107 0 17 -452 705 -703 1068 -735 1065 -785 1136 -764
1081z"/>
<path d="M4091 3984 c-19 -42 -155 -360 -208 -489 -25 -60 -51 -114 -58 -120
-7 -5 -15 -17 -19 -25 -3 -8 -4 -1 0 15 3 18 2 26 -4 20 -26 -29 -422 -900
-545 -1200 -100 -245 -95 -229 -82 -234 11 -5 20 11 89 161 28 59 52 106 54
104 1 -2 -22 -65 -53 -140 -37 -92 -53 -144 -50 -159 4 -16 -13 -75 -54 -178
-70 -178 -160 -415 -168 -443 -4 -13 -2 -17 5 -12 9 5 11 -3 7 -28 -2 -20 -2
-36 0 -36 2 0 16 22 32 50 15 27 31 50 36 50 4 0 7 5 7 11 0 5 18 48 40 94 22
46 40 86 40 89 0 3 11 29 24 58 13 29 40 94 59 143 20 50 52 133 73 185 20 52
40 97 44 100 4 3 12 19 18 35 6 17 23 62 37 100 15 39 46 124 70 190 24 66 61
165 83 220 141 360 543 1447 540 1457 -2 6 -10 -3 -17 -18z"/>
<path d="M4178 3959 c-9 -30 -62 -225 -118 -434 -56 -209 -103 -381 -106 -384
-7 -7 -5 9 10 68 44 169 16 135 -38 -47 -22 -73 -41 -130 -44 -128 -2 3 21 89
52 193 110 375 146 506 142 511 -5 5 -11 -8 -41 -88 -9 -22 -14 -28 -14 -15
-1 12 -4 15 -10 10 -15 -15 -395 -1070 -529 -1465 -201 -595 -216 -650 -179
-637 18 6 26 27 148 357 61 166 58 150 -20 -108 -34 -112 -69 -237 -77 -278
-7 -41 -17 -87 -21 -102 -6 -24 -5 -25 10 -11 45 46 176 424 357 1031 41 136
75 246 77 244 2 -2 -25 -104 -61 -227 -54 -187 -166 -616 -166 -634 0 -3 4 -5
8 -5 9 0 32 59 32 82 0 9 4 18 8 20 4 2 21 48 37 102 16 55 31 94 33 88 2 -6
-9 -65 -24 -129 -14 -65 -30 -138 -35 -163 -4 -25 -30 -137 -57 -250 -28 -113
-58 -239 -67 -280 -21 -90 -34 -226 -23 -243 6 -9 8 -8 8 2 0 8 6 22 13 30 31
37 77 183 152 486 31 127 61 244 66 260 16 49 127 513 184 770 100 446 184
819 240 1065 77 337 77 339 73 351 -2 6 -11 -13 -20 -42z"/>
<path d="M4390 3944 c0 -38 9 -220 20 -404 11 -184 19 -355 18 -380 l-1 -45
-8 40 c-4 22 -6 -104 -4 -280 3 -294 2 -303 -5 -115 -20 494 -33 745 -41 769
-11 33 -2 -1449 11 -1704 17 -363 23 -445 30 -445 13 0 23 511 17 848 -4 251
-3 280 3 137 10 -215 40 -582 49 -607 3 -9 5 65 5 165 l-2 182 14 -170 c8 -93
19 -201 24 -240 6 -38 15 -140 20 -225 6 -85 15 -182 20 -215 5 -33 10 -82 10
-109 0 -26 6 -74 14 -105 8 -31 17 -69 21 -86 l7 -30 14 40 c34 96 -6 727
-127 1995 -85 895 -99 1044 -104 1049 -3 2 -5 -27 -5 -65z"/>
<path d="M5013 3990 c9 -14 79 -85 156 -158 77 -73 150 -147 162 -165 19 -26
14 -23 -30 17 -52 47 -82 57 -45 14 10 -12 -16 9 -59 47 -43 37 -83 77 -88 87
-5 9 -19 23 -31 29 -18 10 -17 7 6 -24 15 -20 31 -37 34 -39 4 -2 48 -48 97
-103 84 -94 284 -310 629 -680 244 -261 726 -735 748 -735 18 0 6 19 -35 57
-52 48 -123 133 -111 133 5 0 -43 53 -106 117 -63 65 -81 86 -40 47 41 -39
109 -99 150 -135 41 -35 99 -88 128 -116 30 -29 58 -50 63 -47 6 3 -24 40 -66
82 -41 41 -75 79 -75 83 0 8 3 5 -99 112 -77 80 -88 108 -14 36 23 -22 48 -39
56 -37 9 2 62 -39 120 -89 108 -97 154 -134 222 -180 63 -43 129 -103 137
-124 6 -16 38 -28 38 -14 0 3 -37 42 -82 88 -46 46 -123 126 -173 178 -103
109 -511 488 -855 794 -129 115 -338 302 -465 415 -215 192 -323 286 -369 320
-19 15 -19 14 -3 -10z"/>
<path d="M4232 3955 c-6 -22 -20 -94 -32 -160 -11 -66 -52 -288 -90 -494 -39
-205 -70 -378 -70 -384 0 -6 -3 -8 -6 -4 -3 3 11 96 31 207 34 182 38 226 19
207 -4 -4 -24 -82 -45 -174 -21 -93 -54 -235 -73 -318 -54 -228 -135 -624
-157 -770 -10 -71 -30 -184 -44 -250 -34 -171 -55 -296 -55 -335 0 -49 11 -30
15 26 5 63 26 134 40 134 12 0 27 64 87 363 23 119 45 217 49 217 3 0 2 -24
-3 -52 -4 -29 -17 -111 -28 -183 -11 -71 -35 -227 -55 -345 -19 -118 -39 -255
-45 -305 -5 -49 -14 -123 -20 -163 -13 -87 -10 -174 7 -179 7 -3 15 8 19 24 3
15 12 48 19 73 17 58 50 226 81 410 34 204 63 368 74 417 6 23 12 61 15 85 3
24 12 81 20 128 8 47 42 279 75 515 73 520 86 612 145 1010 43 295 52 388 27
300z"/>
<path d="M4326 3964 c-3 -8 -9 -98 -13 -200 -3 -102 -10 -179 -14 -173 -8 14
-15 -7 -22 -66 -3 -19 -5 -12 -6 20 -4 81 -19 28 -35 -125 -8 -74 -14 -105
-12 -67 2 80 -9 89 -19 15 -9 -69 -15 -89 -25 -83 -12 7 -14 -5 -70 -400 -94
-671 -134 -997 -135 -1100 0 -57 3 -70 16 -69 11 1 15 -8 14 -37 0 -21 -4 -41
-8 -45 -4 -4 -6 -26 -6 -48 l2 -41 7 40 c5 26 7 7 4 -55 l-3 -95 15 55 c15 56
28 131 39 230 3 30 10 80 15 110 5 30 17 133 26 227 10 95 19 171 22 169 2 -3
-6 -125 -17 -273 -25 -318 -31 -554 -15 -560 22 -7 37 115 84 657 11 129 11
20 1 -160 -22 -357 -24 -495 -8 -508 31 -26 41 13 53 197 l11 176 -1 -335 c0
-235 4 -369 14 -450 l14 -115 8 64 c4 35 12 77 17 93 13 37 28 287 41 683 11
351 26 2285 18 2285 -3 0 -9 -7 -12 -16z"/>
</g>
</svg>
